<?xml version="1.0" encoding="UTF-8"?>
<svg id="Artwork" xmlns="http://www.w3.org/2000/svg" viewBox="0 0 119.08 34.01">
  <defs>
    <style>
      .cls-1 {
        fill: #fff;
      }

      .cls-2 {
        fill: #231f20;
      }

      .cls-3 {
        fill: none;
        stroke: #000;
        stroke-linecap: round;
        stroke-miterlimit: 10;
      }
    </style>
  </defs>
  <path class="cls-2" d="M118.37,7.19v-.79c-.02-.5-.05-1.05-.15-1.58-.08-.52-.23-.98-.46-1.43-.23-.45-.52-.85-.87-1.2s-.76-.64-1.2-.87c-.45-.23-.91-.38-1.43-.47-.57-.1-1.15-.13-1.59-.14h-.14c-.21,0-.43-.01-.64-.01H41.35v1.79c0,.33-.02,.63-.18,.91-.16,.28-.41,.45-.69,.61l-3.57,2.08V1.34l2.14,1.25c.17,.1,.4,.04,.5-.14,.09-.18,.04-.41-.13-.5l-2.14-1.25h-1.47l-2.14,1.25c-.17,.09-.23,.33-.12,.5,.09,.18,.32,.24,.49,.14l2.14-1.25V6.09l-3.57-2.08c-.29-.16-.52-.32-.69-.61-.16-.29-.18-.58-.18-.91V.7h-.73v1.79c0,.33-.02,.63-.19,.91-.16,.28-.38,.45-.67,.61l-3.57,2.08V1.34l2.12,1.25c.18,.1,.39,.04,.5-.14,.11-.17,.05-.41-.13-.5l-2.13-1.25h-1.48l-2.13,1.25c-.17,.09-.24,.33-.14,.5,.11,.18,.33,.24,.5,.14l2.14-1.25V6.09l-3.57-2.08c-.29-.16-.52-.32-.68-.61-.17-.29-.19-.58-.19-.91V.7h-.74v1.79c0,.33-.02,.63-.18,.91-.16,.28-.41,.45-.69,.61l-3.57,2.08V1.34l2.14,1.25c.17,.1,.4,.04,.5-.14,.1-.18,.05-.41-.13-.5l-2.14-1.25h-1.47l-2.13,1.25c-.18,.1-.24,.33-.14,.5,.11,.18,.33,.24,.5,.14l2.14-1.25V6.09l-3.57-2.08c-.29-.16-.52-.32-.68-.61-.17-.29-.18-.58-.18-.91V.7h-.74v1.79c0,.33-.02,.63-.19,.91-.16,.28-.4,.45-.68,.61l-3.57,2.08V1.34l2.14,1.25c.18,.1,.39,.04,.5-.14,.1-.18,.04-.41-.13-.5L6.26,.71c-.41,.02-.93,.05-1.44,.14-.16,.03-.32,.06-.47,.11h0l-1.7,.99c-.18,.09-.24,.33-.14,.5,.09,.18,.33,.24,.5,.14l2.14-1.25V6.09L1.57,4.01c-.15-.08-.29-.17-.41-.27-.1,.25-.18,.5-.25,.77,.1,.03,.2,.08,.3,.14l3.57,2.09L.7,9.12v1.29l2.14,1.25c.17,.09,.39,.04,.5-.15,.09-.17,.04-.39-.13-.5l-2.14-1.24,4.07-2.39v4.18c0,.33-.02,.62-.18,.9-.17,.29-.4,.45-.69,.61L.7,15.17v1.3l4.08,2.37-2.14,1.25c-.18,.1-.24,.34-.14,.51,.09,.17,.33,.23,.5,.13l2.14-1.24v4.75l-3.57-2.08c-.29-.17-.52-.33-.69-.62-.16-.29-.18-.57-.18-.91v1.93c.17,.06,.33,.14,.51,.24l3.57,2.09L.7,27.26c.01,.11,.01,.22,.01,.34,0,.28,.02,.63,.06,.99l2.07,1.22c.17,.09,.39,.03,.5-.15,.09-.17,.04-.4-.13-.5l-2.14-1.25,4.07-2.38v4.18c0,.32-.02,.62-.18,.9-.17,.29-.4,.45-.69,.61l-1.65,.97c.24,.2,.5,.36,.77,.5,.44,.22,.9,.38,1.43,.47,.55,.1,1.11,.13,1.59,.14,.26,.01,.51,.01,.77,.01H111.89c.26,0,.52,0,.77-.01,.48-.01,1.05-.04,1.6-.14,.53-.09,.98-.24,1.43-.47,.44-.23,.84-.52,1.19-.87,.35-.35,.65-.75,.88-1.2,.22-.44,.37-.9,.46-1.42,.1-.53,.13-1.09,.15-1.61v-.76c.01-.31,.01-.62,.01-.93V8.11c0-.31,0-.61-.01-.92ZM10.31,15.17l-3.58-2.1c-.28-.16-.51-.32-.67-.61-.16-.28-.19-.57-.19-.9V7.38l4.07,2.39-2.13,1.24c-.17,.1-.25,.33-.14,.5,.11,.19,.33,.26,.51,.15l2.13-1.25v4.76Zm5.17-3.61c0,.33-.02,.62-.18,.9-.17,.29-.4,.45-.68,.61l-3.58,2.1v-4.76l2.14,1.25c.17,.09,.39,.04,.5-.15,.11-.17,.03-.39-.14-.5l-2.13-1.24,4.07-2.39v4.18Zm5.18,3.61l-3.57-2.1c-.29-.16-.53-.32-.69-.61-.16-.28-.18-.57-.18-.9V7.38l4.08,2.39-2.14,1.24s-.06,.04-.08,.06c-.12,.12-.14,.3-.05,.44,.09,.19,.32,.26,.49,.15l2.14-1.25v4.76Zm.37-8.91c-.21,0-.37,.16-.37,.37v2.49l-4.07-2.38,3.57-2.09c.28-.16,.54-.29,.87-.29,.13,0,.24,.02,.36,.06,.17,.05,.33,.13,.5,.23l3.58,2.09-4.08,2.38v-2.49c0-.21-.16-.37-.36-.37Z"/>
  <path class="cls-1" d="M118.37,7.19v-.79c-.02-.5-.05-1.05-.15-1.58-.08-.52-.23-.98-.46-1.43-.23-.45-.52-.85-.87-1.2s-.76-.64-1.2-.87c-.45-.23-.91-.38-1.43-.47-.57-.1-1.15-.13-1.59-.14h-.14c-.21,0-.43-.01-.64-.01H41.35v1.79c0,.33-.02,.63-.18,.91-.16,.28-.41,.45-.69,.61l-3.57,2.08V1.34l2.14,1.25c.17,.1,.4,.04,.5-.14,.09-.18,.04-.41-.13-.5l-2.14-1.25h-1.47l-2.14,1.25c-.17,.09-.23,.33-.12,.5,.09,.18,.32,.24,.49,.14l2.14-1.25V6.09l-3.57-2.08c-.29-.16-.52-.32-.69-.61-.16-.29-.18-.58-.18-.91V.7h-.73v1.79c0,.33-.02,.63-.19,.91-.16,.28-.38,.45-.67,.61l-3.57,2.08V1.34l2.12,1.25c.18,.1,.39,.04,.5-.14,.11-.17,.05-.41-.13-.5l-2.13-1.25h-1.48l-2.13,1.25c-.17,.09-.24,.33-.14,.5,.11,.18,.33,.24,.5,.14l2.14-1.25V6.09l-3.57-2.08c-.29-.16-.52-.32-.68-.61-.17-.29-.19-.58-.19-.91V.7h-.74v1.79c0,.33-.02,.63-.18,.91-.16,.28-.41,.45-.69,.61l-3.57,2.08V1.34l2.14,1.25c.17,.1,.4,.04,.5-.14,.1-.18,.05-.41-.13-.5l-2.14-1.25h-1.47l-2.13,1.25c-.18,.1-.24,.33-.14,.5,.11,.18,.33,.24,.5,.14l2.14-1.25V6.09l-3.57-2.08c-.29-.16-.52-.32-.68-.61-.17-.29-.18-.58-.18-.91V.7h-.74v1.79c0,.33-.02,.63-.19,.91-.16,.28-.4,.45-.68,.61l-3.57,2.08V1.34l2.14,1.25c.18,.1,.39,.04,.5-.14,.1-.18,.04-.41-.13-.5L6.26,.71c-.41,.02-.93,.05-1.44,.14-.16,.03-.32,.06-.47,.11h0l-1.7,.99c-.18,.09-.24,.33-.14,.5,.09,.18,.33,.24,.5,.14l2.14-1.25V6.09L1.57,4.01c-.15-.08-.29-.17-.41-.27-.1,.25-.18,.5-.25,.77,.1,.03,.2,.08,.3,.14l3.57,2.09L.7,9.12v1.29l2.14,1.25c.17,.09,.39,.04,.5-.15,.09-.17,.04-.39-.13-.5l-2.14-1.24,4.07-2.39v4.18c0,.33-.02,.62-.18,.9-.17,.29-.4,.45-.69,.61L.7,15.17v1.3l4.08,2.37-2.14,1.25c-.18,.1-.24,.34-.14,.51,.09,.17,.33,.23,.5,.13l2.14-1.24v4.75l-3.57-2.08c-.29-.17-.52-.33-.69-.62-.16-.29-.18-.57-.18-.91v1.93c.17,.06,.33,.14,.51,.24l3.57,2.09L.7,27.26c.01,.11,.01,.22,.01,.34,0,.28,.02,.63,.06,.99l2.07,1.22c.17,.09,.39,.03,.5-.15,.09-.17,.04-.4-.13-.5l-2.14-1.25,4.07-2.38v4.18c0,.32-.02,.62-.18,.9-.17,.29-.4,.45-.69,.61l-1.65,.97c.24,.2,.5,.36,.77,.5,.44,.22,.9,.38,1.43,.47,.55,.1,1.11,.13,1.59,.14,.26,.01,.51,.01,.77,.01H111.89c.26,0,.52,0,.77-.01,.48-.01,1.05-.04,1.6-.14,.53-.09,.98-.24,1.43-.47,.44-.23,.84-.52,1.19-.87,.35-.35,.65-.75,.88-1.2,.22-.44,.37-.9,.46-1.42,.1-.53,.13-1.09,.15-1.61v-.76c.01-.31,.01-.62,.01-.93V8.11c0-.31,0-.61-.01-.92ZM10.31,15.17l-3.58-2.1c-.28-.16-.51-.32-.67-.61-.16-.28-.19-.57-.19-.9V7.38l4.07,2.39-2.13,1.24c-.17,.1-.25,.33-.14,.5,.11,.19,.33,.26,.51,.15l2.13-1.25v4.76Zm5.17-3.61c0,.33-.02,.62-.18,.9-.17,.29-.4,.45-.68,.61l-3.58,2.1v-4.76l2.14,1.25c.17,.09,.39,.04,.5-.15,.11-.17,.03-.39-.14-.5l-2.13-1.24,4.07-2.39v4.18Zm5.18,3.61l-3.57-2.1c-.29-.16-.53-.32-.69-.61-.16-.28-.18-.57-.18-.9V7.38l4.08,2.39-2.14,1.24s-.06,.04-.08,.06c-.12,.12-.14,.3-.05,.44,.09,.19,.32,.26,.49,.15l2.14-1.25v4.76Zm.37-8.91c-.21,0-.37,.16-.37,.37v2.49l-4.07-2.38,3.57-2.09c.28-.16,.54-.29,.87-.29,.13,0,.24,.02,.36,.06,.17,.05,.33,.13,.5,.23l3.58,2.09-4.08,2.38v-2.49c0-.21-.16-.37-.36-.37Z"/>
  <path class="cls-2" d="M50.79,9.42h9.87c.19,0,.34,.15,.34,.34v1.97c0,.18-.15,.33-.33,.33h-9.87c-.19,0-.34-.15-.34-.34v-1.97c0-.18,.15-.33,.33-.33Z"/>
  <path class="cls-2" d="M50.9,15.07h1.97c.19,0,.34,.15,.34,.34v9.87c0,.19-.15,.34-.34,.34h-1.97c-.18,0-.33-.15-.33-.33V15.41c0-.19,.15-.34,.34-.34Z"/>
  <rect class="cls-2" x="44.95" y="15.07" width="2.64" height="10.54" rx=".34" ry=".34"/>
  <path class="cls-2" d="M45.23,9.42h1.97c.19,0,.34,.15,.34,.34v2.1c0,.18-.15,.33-.33,.33h-1.97c-.18,0-.33-.15-.33-.33v-2.11c0-.18,.15-.33,.33-.33Z"/>
  <path class="cls-2" d="M39.67,9.42h1.97c.19,0,.34,.15,.34,.34v15.52c0,.19-.15,.34-.34,.34h-1.97c-.19,0-.34-.15-.34-.34V9.76c0-.18,.15-.33,.33-.33Z"/>
  <path class="cls-2" d="M34.05,9.42h1.97c.19,0,.34,.15,.34,.34v9.87c0,.19-.15,.34-.34,.34h-1.97c-.19,0-.34-.15-.34-.34V9.76c0-.18,.15-.33,.33-.33Z"/>
  <path class="cls-2" d="M28.44,9.42h1.97c.18,0,.33,.15,.33,.33v15.52c0,.19-.15,.34-.34,.34h-1.97c-.19,0-.34-.15-.34-.34V9.76c0-.18,.15-.33,.33-.33Z"/>
  <rect class="cls-2" x="44.95" y="15.07" width="2.64" height="10.54" rx=".34" ry=".34"/>
  <path class="cls-2" d="M50.9,15.07h1.97c.19,0,.34,.15,.34,.34v9.87c0,.19-.15,.34-.34,.34h-1.97c-.19,0-.34-.15-.34-.34V15.41c0-.18,.15-.33,.33-.33Z"/>
  <path class="cls-2" d="M45.23,9.42h1.97c.18,0,.33,.15,.33,.33v2.1c0,.19-.15,.34-.34,.34h-1.97c-.18,0-.33-.15-.33-.33v-2.1c0-.19,.15-.34,.34-.34Z"/>
  <rect class="cls-2" x="50.45" y="9.42" width="10.54" height="2.64" rx=".33" ry=".33"/>
  <path class="cls-2" d="M28.44,9.42h1.97c.19,0,.34,.15,.34,.34v15.52c0,.18-.15,.33-.33,.33h-1.97c-.18,0-.33-.15-.33-.33V9.76c0-.18,.15-.33,.33-.33Z"/>
  <path class="cls-2" d="M39.67,9.42h1.97c.19,0,.34,.15,.34,.34v15.52c0,.19-.15,.34-.34,.34h-1.97c-.18,0-.33-.15-.33-.33V9.76c0-.19,.15-.34,.34-.34Z"/>
  <path class="cls-2" d="M34.06,9.42h1.97c.18,0,.33,.15,.33,.33v9.87c0,.19-.15,.34-.34,.34h-1.97c-.18,0-.33-.15-.33-.33V9.76c0-.19,.15-.34,.34-.34Z"/>
  <path class="cls-2" d="M10.31,10.41v4.76l-3.58-2.1c-.28-.16-.51-.32-.67-.61-.16-.28-.19-.57-.19-.9V7.38l4.07,2.39-2.13,1.24c-.17,.1-.25,.33-.14,.5,.11,.19,.33,.26,.51,.15l2.13-1.25Z"/>
  <path class="cls-2" d="M11.04,9.12v-2.5c0-.21-.16-.37-.37-.37s-.36,.16-.36,.37v2.5l-4.08-2.38,3.57-2.09c.28-.16,.54-.29,.87-.29s.59,.13,.87,.29l3.57,2.09-4.07,2.38Z"/>
  <path class="cls-2" d="M15.48,7.38v4.18c0,.33-.02,.62-.18,.9-.17,.29-.4,.45-.68,.61l-3.58,2.1v-4.76l2.14,1.25c.17,.09,.39,.04,.5-.15,.11-.17,.03-.39-.14-.5l-2.13-1.24,4.07-2.39Z"/>
  <path class="cls-2" d="M20.66,10.41v4.76l-3.57-2.1c-.29-.16-.53-.32-.69-.61-.16-.28-.18-.57-.18-.9V7.38l4.08,2.39-2.14,1.24s-.06,.04-.08,.06c-.12,.12-.14,.3-.05,.44,.09,.19,.32,.26,.49,.15l2.14-1.25Z"/>
  <path class="cls-2" d="M25.83,7.38v4.18c0,.33-.02,.62-.18,.9-.16,.29-.41,.45-.69,.61l-3.57,2.09v-4.76l2.14,1.25c.18,.09,.4,.04,.51-.14,.02-.03,.04-.05,.04-.09,.03-.09,0-.19-.04-.27-.03-.06-.07-.11-.14-.14l-2.14-1.24,4.07-2.38Z"/>
  <path class="cls-2" d="M5.87,18.19v-2.5c0-.21-.16-.37-.36-.37-.22,0-.37,.16-.37,.37v2.5L1.07,15.81l3.57-2.08c.28-.17,.54-.3,.87-.3s.58,.13,.87,.3l3.57,2.08-4.08,2.38Z"/>
  <path class="cls-2" d="M10.31,16.47v4.17c0,.33-.03,.62-.19,.91-.16,.28-.41,.45-.69,.61l-3.57,2.08v-4.75l2.14,1.24c.18,.1,.4,.04,.51-.14,.1-.19,.04-.41-.14-.51l-2.14-1.25,4.08-2.37Z"/>
  <path class="cls-2" d="M119.07,7.18v-.78c-.02-.57-.05-1.14-.16-1.7-.1-.57-.27-1.11-.53-1.62-.26-.51-.6-.98-1-1.38-.4-.41-.87-.74-1.38-1-.52-.27-1.05-.44-1.62-.54-.56-.1-1.13-.13-1.7-.15-.26,0-.52-.01-.78-.01H7.18c-.26,0-.52,.01-.78,.01-.57,.02-1.14,.05-1.71,.15-.57,.1-1.1,.27-1.62,.54-.5,.26-.97,.6-1.37,1-.39,.38-.72,.83-.96,1.31-.02,.02-.03,.05-.04,.07-.27,.51-.44,1.05-.53,1.61C.06,5.26,.03,5.83,.01,6.4c-.01,.26-.01,.52-.01,.78V26.84c0,.26,0,.52,.01,.78,.02,.57,.05,1.14,.15,1.7,.1,.57,.27,1.11,.54,1.62,.25,.51,.59,.97,1,1.37,.09,.09,.18,.18,.27,.25,.34,.3,.71,.56,1.1,.76,.52,.26,1.05,.43,1.62,.53,.57,.1,1.14,.14,1.7,.15,.27,.01,.53,.01,.79,.01H111.9c.26,0,.52,0,.78-.01,.57-.01,1.14-.05,1.7-.15,.57-.1,1.1-.27,1.62-.53,.51-.26,.98-.6,1.38-1.01,.4-.39,.74-.86,1-1.37,.27-.51,.43-1.05,.53-1.62,.11-.56,.14-1.13,.16-1.7v-.78c.01-.31,.01-.62,.01-.93V8.11c0-.31,0-.62-.01-.93Zm-.69,18.72c0,.31,0,.62-.01,.93v.76c-.02,.52-.05,1.08-.15,1.61-.09,.52-.24,.98-.46,1.42-.23,.45-.53,.85-.88,1.2-.35,.35-.75,.64-1.19,.87-.45,.23-.9,.38-1.43,.47-.55,.1-1.12,.13-1.6,.14-.25,.01-.51,.01-.77,.01H7.18c-.26,0-.51,0-.77-.01-.48-.01-1.04-.04-1.59-.14-.53-.09-.99-.25-1.43-.47-.27-.14-.53-.3-.77-.5l1.65-.97c.29-.16,.52-.32,.69-.61,.16-.28,.18-.58,.18-.9v-4.18l-4.07,2.38,2.14,1.25c.17,.1,.22,.33,.13,.5-.11,.18-.33,.24-.5,.15l-2.07-1.22c-.04-.36-.05-.71-.06-.99,0-.12,0-.23-.01-.34l4.08-2.37-3.57-2.09c-.18-.1-.34-.18-.51-.24v-1.93c0,.34,.02,.62,.18,.91,.17,.29,.4,.45,.69,.62l3.57,2.08v-4.75l-2.14,1.24c-.17,.1-.41,.04-.5-.13-.1-.17-.04-.41,.14-.51l2.14-1.25L.7,16.47v-1.3l3.57-2.1c.29-.16,.52-.32,.69-.61,.16-.28,.18-.57,.18-.9V7.38L1.07,9.77l2.14,1.24c.17,.11,.22,.33,.13,.5-.11,.19-.33,.24-.5,.15l-2.14-1.25v-1.29l4.08-2.38L1.21,4.65c-.1-.06-.2-.11-.3-.14,.07-.27,.15-.52,.25-.77,.12,.1,.26,.19,.41,.27l3.57,2.08V1.34l-2.14,1.25c-.17,.1-.41,.04-.5-.14-.1-.17-.04-.41,.14-.5l1.7-.99h0c.15-.05,.31-.08,.47-.11,.51-.09,1.03-.12,1.44-.14l2.12,1.24c.17,.09,.23,.32,.13,.5-.11,.18-.32,.24-.5,.14l-2.14-1.25V6.09l3.57-2.08c.28-.16,.52-.33,.68-.61,.17-.28,.19-.58,.19-.91V.7h.74v1.79c0,.33,.01,.62,.18,.91,.16,.29,.39,.45,.68,.61l3.57,2.08V1.34l-2.14,1.25c-.17,.1-.39,.04-.5-.14-.1-.17-.04-.4,.14-.5l2.13-1.25h1.47l2.14,1.25c.18,.09,.23,.32,.13,.5-.1,.18-.33,.24-.5,.14l-2.14-1.25V6.09l3.57-2.08c.28-.16,.53-.33,.69-.61,.16-.28,.18-.58,.18-.91V.7h.74v1.79c0,.33,.02,.62,.19,.91,.16,.29,.39,.45,.68,.61l3.57,2.08V1.34l-2.14,1.25c-.17,.1-.39,.04-.5-.14-.1-.17-.03-.41,.14-.5l2.13-1.25h1.48l2.13,1.25c.18,.09,.24,.33,.13,.5-.11,.18-.32,.24-.5,.14l-2.12-1.25V6.09l3.57-2.08c.29-.16,.51-.33,.67-.61,.17-.28,.19-.58,.19-.91V.7h.73v1.79c0,.33,.02,.62,.18,.91,.17,.29,.4,.45,.69,.61l3.57,2.08V1.34l-2.14,1.25c-.17,.1-.4,.04-.49-.14-.11-.17-.05-.41,.12-.5l2.14-1.25h1.47l2.14,1.25c.17,.09,.22,.32,.13,.5-.1,.18-.33,.24-.5,.14l-2.14-1.25V6.09l3.57-2.08c.28-.16,.53-.33,.69-.61,.16-.28,.18-.58,.18-.91V.7H111.89c.21,0,.43,.01,.64,.01h.14c.44,0,1.02,.04,1.59,.14,.52,.09,.98,.24,1.43,.47,.44,.23,.85,.52,1.2,.87s.64,.75,.87,1.2c.23,.45,.38,.91,.46,1.43,.1,.53,.13,1.08,.15,1.58v.79c.01,.31,.01,.61,.01,.92V25.9Z"/>
  <path class="cls-2" d="M21.39,9.12v-2.49c0-.21-.16-.37-.36-.37-.21,0-.37,.16-.37,.37v2.49l-4.07-2.38,3.57-2.09c.28-.16,.54-.29,.87-.29,.13,0,.24,.02,.36,.06,.17,.05,.33,.13,.5,.23l3.58,2.09-4.08,2.38Z"/>
  <g>
    <path class="cls-2" d="M68.67,12.84c.24,.12,.62,.25,1,.25,.42,0,.63-.17,.63-.43s-.19-.39-.67-.56c-.66-.23-1.1-.6-1.1-1.18,0-.68,.57-1.21,1.51-1.21,.45,0,.78,.09,1.02,.2l-.2,.73c-.16-.08-.45-.19-.84-.19s-.58,.18-.58,.39c0,.25,.23,.37,.74,.56,.71,.26,1.04,.63,1.04,1.19,0,.67-.52,1.24-1.61,1.24-.46,0-.91-.12-1.13-.24l.18-.75Z"/>
    <path class="cls-2" d="M75.51,11.73c0,1.31-.79,2.11-1.96,2.11s-1.88-.9-1.88-2.04c0-1.2,.77-2.1,1.95-2.1s1.9,.92,1.9,2.02Zm-2.89,.05c0,.78,.37,1.34,.97,1.34s.96-.58,.96-1.36c0-.72-.34-1.34-.97-1.34s-.97,.58-.97,1.36Z"/>
    <path class="cls-2" d="M76.1,9.78h2.45v.74h-1.54v.91h1.44v.74h-1.44v1.61h-.91v-4Z"/>
    <path class="cls-2" d="M80,10.54h-1.07v-.76h3.08v.76h-1.09v3.24h-.91v-3.24Z"/>
    <path class="cls-2" d="M83.29,13.78l-.95-4h.97l.3,1.65c.09,.48,.17,.99,.24,1.4h.01c.07-.43,.16-.91,.26-1.41l.34-1.64h.96l.32,1.69c.09,.47,.15,.9,.21,1.34h.01c.06-.44,.15-.91,.23-1.39l.33-1.64h.92l-1.03,4h-.98l-.34-1.72c-.08-.4-.14-.78-.19-1.23h-.01c-.07,.45-.14,.83-.23,1.23l-.38,1.72h-.99Z"/>
    <path class="cls-2" d="M88.52,12.75l-.28,1.03h-.94l1.22-4h1.19l1.24,4h-.97l-.31-1.03h-1.15Zm1.02-.68l-.25-.85c-.07-.24-.14-.53-.2-.77h-.01c-.06,.24-.12,.54-.18,.77l-.24,.85h.88Z"/>
    <path class="cls-2" d="M91.48,9.83c.29-.05,.72-.08,1.21-.08,.59,0,1.01,.09,1.29,.31,.24,.19,.37,.47,.37,.84,0,.51-.36,.86-.71,.99v.02c.28,.11,.43,.38,.53,.75,.12,.45,.25,.97,.33,1.13h-.93c-.07-.11-.16-.44-.28-.93-.11-.5-.28-.63-.65-.64h-.27v1.57h-.9v-3.95Zm.9,1.72h.36c.45,0,.72-.23,.72-.58,0-.37-.25-.55-.67-.56-.22,0-.34,.02-.41,.03v1.1Z"/>
    <path class="cls-2" d="M97.38,12.08h-1.47v.95h1.64v.74h-2.55v-4h2.47v.74h-1.56v.83h1.47v.74Z"/>
    <path class="cls-2" d="M69.09,17.07h1.94v6.94h3.41v1.63h-5.35v-8.57Z"/>
    <path class="cls-2" d="M77.53,17.07v8.57h-1.94v-8.57h1.94Z"/>
    <path class="cls-2" d="M85.5,25.4c-.36,.18-1.16,.37-2.2,.37-2.96,0-4.49-1.84-4.49-4.28,0-2.92,2.08-4.55,4.68-4.55,1,0,1.77,.2,2.11,.38l-.39,1.54c-.39-.17-.94-.32-1.63-.32-1.54,0-2.73,.93-2.73,2.83,0,1.72,1.02,2.8,2.75,2.8,.58,0,1.23-.13,1.61-.28l.29,1.51Z"/>
    <path class="cls-2" d="M91.87,22.02h-3.15v2.03h3.52v1.59h-5.47v-8.57h5.29v1.59h-3.34v1.78h3.15v1.58Z"/>
    <path class="cls-2" d="M93.56,25.64v-8.57h2.26l1.78,3.14c.51,.9,1.02,1.97,1.4,2.94h.04c-.13-1.13-.17-2.29-.17-3.57v-2.5h1.78v8.57h-2.03l-1.83-3.3c-.51-.92-1.07-2.02-1.49-3.03h-.04c.05,1.14,.08,2.35,.08,3.75v2.58h-1.78Z"/>
    <path class="cls-2" d="M108.62,25.4c-.36,.18-1.16,.37-2.2,.37-2.96,0-4.49-1.84-4.49-4.28,0-2.92,2.08-4.55,4.68-4.55,1,0,1.77,.2,2.11,.38l-.39,1.54c-.39-.17-.94-.32-1.63-.32-1.54,0-2.73,.93-2.73,2.83,0,1.72,1.02,2.8,2.75,2.8,.58,0,1.23-.13,1.61-.28l.29,1.51Z"/>
    <path class="cls-2" d="M114.99,22.02h-3.15v2.03h3.52v1.59h-5.47v-8.57h5.29v1.59h-3.34v1.78h3.15v1.58Z"/>
  </g>
  <line class="cls-3" x1="64.61" y1="9.71" x2="64.61" y2="25.61"/>
</svg>
