<?xml version="1.0" encoding="UTF-8"?>
<svg id="Layer_1" xmlns="http://www.w3.org/2000/svg" version="1.1" viewBox="0 0 889.8 510.9">
  <!-- Generator: Adobe Illustrator 29.0.1, SVG Export Plug-In . SVG Version: 2.1.0 Build 192)  -->
  <defs>
    <style>
      .st0 {
        fill: #fff;
      }
    </style>
  </defs>
  <path class="st0" d="M155,229.6c0,11.2-9.1,20.3-20.3,20.3s-20.3-9.1-20.3-20.3,9.1-20.3,20.3-20.3,20.3,9.1,20.3,20.3Z"/>
  <path class="st0" d="M682.8,188.8c-4,5.1-9.9,7.7-16,7.7s-8.8-1.4-12.6-4.4c-9.2-7.2-19.5-12.8-30.8-16.4-8.4-2.7-17.5-4-27.2-4s-9.8.3-14.8,1l-119.4,17.3c-11.1,1.6-21.4-6.1-23-17.2-1.6-11.1,6.1-21.4,17.2-23l119.6-17.4c21.1-3,41.7-1.4,60.1,4.5,15.9,5.3,30.5,13.1,43.6,23.4,8.8,6.9,10.3,19.7,3.3,28.5h0Z"/>
  <path class="st0" d="M811.8,326.5c9.8-17.4,15.4-37.4,15.3-58.8-.4-101.5-65.5-190.6-162.2-221.5-31.9-10.3-67.3-13.1-102.3-8.2l-183.9,25.8c-5.6-9-12.9-16.7-21.7-22.7-14.4-9.8-31.7-14.5-50-13.7-12.8-14.5-29.5-23.8-48.1-26.6-48-7-94.4,32.1-103.4,87.3-1.1,6.5-1.6,12.9-1.6,19.3-42,12.7-79.6,38.1-107,72.6C16.7,218.1,0,265.9,0,314.6s33,73.5,73.5,73.5h633.4c25.9,0,49.9-8.2,69.6-22.2h20.6c28.8,0,52.2,23.4,52.2,52.2s-23.4,52.2-52.2,52.2h-303.5c-11.2,0-20.3,9.1-20.3,20.3s9.1,20.3,20.3,20.3h303.4c51.2,0,92.8-41.6,92.8-92.8s-33.8-84.5-78-91.6h0ZM195.6,94.8c5.5-33.5,31.3-57.6,57.4-53.7,1.8.2,3.5.6,5.2,1.2-13.1,7.7-25,18-34.6,30.5-5.1,6.6-9.5,13.7-13,21l-15.4,3.6c0-.9.2-1.7.4-2.6ZM706.9,347.6h-123.5c5.6-9.2,14.9-16.1,26-18.3l51.5-10.3c11-2.2,18.1-12.9,15.9-23.9s-12.9-18.1-23.9-15.9l-51.5,10.3c-30.4,6.1-54,29.2-61.7,58.1H230.4c5.6-9.2,14.9-16.1,26-18.3l51.5-10.3c11-2.2,18.1-12.9,15.9-23.9s-12.9-18.1-23.9-15.9l-51.5,10.3c-30.4,6.1-54,29.2-61.6,58.1h-113.3c-18.1,0-32.9-14.8-32.9-32.9,0-39.5,13.5-78.4,38.1-109.4s59.3-53,97.9-62l23.4-5.5c-.1,7.8.8,15.5,2.8,22.9,2.8,10.8,13.9,17.3,24.8,14.5,10.9-2.8,17.4-13.9,14.5-24.8-4.3-16.5.8-36.3,13.6-53,20.9-27.1,56.8-37.5,78.5-22.8,10.5,7.1,14.1,17.6,15.3,25.2,2.5,15.8-2.8,33.5-14.5,48.7-13.2,17-32.4,28.1-51.3,29.4-11.2.8-19.6,10.5-18.8,21.7.8,10.7,9.7,18.9,20.2,18.9s51.3-1,82.1-45.1c15.3-21.9,24.6-46.3,23.4-70.2l177.7-24.9c29-4.1,58.1-1.8,84.3,6.6,79.8,25.6,133.7,99.2,134,183,0,43.9-35.8,79.7-79.7,79.7h0Z"/>
  <g>
    <path class="st0" d="M106.8,472v38.2h-11.9v-19.1l-5.9,19.1h-10.3l-5.9-19.1v19.1h-12v-38.2h14.7l8.4,22.9,8.2-22.9h14.6Z"/>
    <path class="st0" d="M120.9,508.1c-3-1.7-5.4-4-7.2-7-1.8-3-2.6-6.4-2.6-10.1s.9-7.1,2.6-10.1c1.8-3,4.1-5.3,7.2-7,3-1.7,6.3-2.5,9.9-2.5s6.9.8,9.9,2.5c3,1.7,5.4,4,7.1,7,1.7,3,2.6,6.4,2.6,10.1s-.9,7.1-2.6,10.1c-1.7,3-4.1,5.3-7.1,7-3,1.7-6.3,2.5-9.9,2.5s-6.9-.8-9.9-2.5ZM136.3,497.2c1.3-1.5,1.9-3.6,1.9-6.2s-.6-4.7-1.9-6.2c-1.3-1.5-3.1-2.3-5.5-2.3s-4.3.8-5.6,2.3c-1.3,1.5-1.9,3.6-1.9,6.2s.6,4.7,1.9,6.2c1.3,1.5,3.1,2.3,5.6,2.3s4.2-.8,5.5-2.3Z"/>
    <path class="st0" d="M166.5,472v21.5c0,1.8.4,3.2,1.2,4.2.8,1,2,1.5,3.8,1.5s3-.5,3.8-1.5c.8-1,1.2-2.4,1.2-4.2v-21.5h11.9v21.5c0,3.6-.8,6.7-2.3,9.3-1.5,2.6-3.6,4.5-6.2,5.8-2.6,1.3-5.6,1.9-8.8,1.9s-6.1-.6-8.6-1.9c-2.5-1.3-4.5-3.2-5.9-5.8-1.4-2.6-2.1-5.7-2.1-9.3v-21.5h11.9Z"/>
    <path class="st0" d="M197.2,507.4c-3-2.1-4.6-5.3-4.8-9.4h12.7c.2,2.2,1.2,3.3,2.9,3.3s1.2-.2,1.6-.5c.4-.3.7-.8.7-1.4s-.5-1.6-1.5-2.2c-1-.6-2.5-1.2-4.5-1.9-2.4-.9-4.5-1.7-6.1-2.5-1.6-.8-3-2-4.1-3.6-1.2-1.6-1.7-3.6-1.7-6.1,0-2.5.6-4.6,1.9-6.3,1.3-1.7,3-3.1,5.2-4,2.2-.9,4.7-1.4,7.5-1.4,4.7,0,8.4,1.1,11.2,3.2,2.8,2.2,4.2,5.2,4.3,9.1h-12.9c0-1.1-.3-1.9-.8-2.3-.5-.5-1.1-.7-1.8-.7s-.9.2-1.2.5c-.3.3-.5.8-.5,1.4s.5,1.6,1.4,2.1c1,.6,2.5,1.2,4.6,2,2.4.9,4.4,1.8,6,2.6,1.6.8,2.9,2,4.1,3.5,1.2,1.5,1.7,3.3,1.7,5.6s-.6,4.4-1.7,6.3c-1.2,1.9-2.8,3.3-5,4.3-2.2,1-4.8,1.6-7.8,1.6-4.6,0-8.3-1.1-11.3-3.2Z"/>
    <path class="st0" d="M239.3,481.6v4.7h11.9v9h-11.9v5.4h13.5v9.6h-25.5v-38.2h25.5v9.6h-13.5Z"/>
    <path class="st0" d="M297.5,494c1.3,1.7,1.9,3.6,1.9,5.8,0,3.3-1.1,5.9-3.3,7.7-2.2,1.8-5.4,2.7-9.5,2.7h-20v-38.2h19.5c3.9,0,6.9.8,9.2,2.5,2.2,1.7,3.3,4.2,3.3,7.4s-.6,4.1-1.8,5.6c-1.2,1.5-2.7,2.5-4.7,3.1,2.3.5,4.1,1.6,5.4,3.3ZM278.5,486.9h4.6c1.1,0,1.9-.2,2.4-.6.5-.4.8-1.1.8-2s-.3-1.6-.8-2.1c-.5-.4-1.3-.7-2.4-.7h-4.6v5.4ZM286.4,500c.5-.4.8-1.1.8-2,0-1.8-1.1-2.8-3.2-2.8h-5.5v5.4h5.5c1.1,0,1.9-.2,2.4-.6Z"/>
    <path class="st0" d="M315.4,472v38.2h-12v-38.2h12Z"/>
    <path class="st0" d="M350.9,472v9.5h-10.2v28.7h-12v-28.7h-10v-9.5h32.2Z"/>
    <path class="st0" d="M366.1,481.6v4.7h11.9v9h-11.9v5.4h13.5v9.6h-25.5v-38.2h25.5v9.6h-13.5Z"/>
    <path class="st0" d="M387.8,507.4c-3-2.1-4.6-5.3-4.8-9.4h12.7c.2,2.2,1.2,3.3,2.9,3.3s1.2-.2,1.6-.5c.4-.3.7-.8.7-1.4s-.5-1.6-1.5-2.2c-1-.6-2.5-1.2-4.5-1.9-2.4-.9-4.5-1.7-6.1-2.5-1.6-.8-3-2-4.1-3.6-1.2-1.6-1.7-3.6-1.7-6.1,0-2.5.6-4.6,1.9-6.3,1.3-1.7,3-3.1,5.2-4,2.2-.9,4.7-1.4,7.5-1.4,4.7,0,8.4,1.1,11.2,3.2,2.8,2.2,4.2,5.2,4.3,9.1h-12.9c0-1.1-.3-1.9-.8-2.3-.5-.5-1.1-.7-1.8-.7s-.9.2-1.2.5c-.3.3-.5.8-.5,1.4s.5,1.6,1.4,2.1c1,.6,2.5,1.2,4.6,2,2.4.9,4.4,1.8,6,2.6,1.6.8,2.9,2,4.1,3.5,1.2,1.5,1.7,3.3,1.7,5.6s-.6,4.4-1.7,6.3c-1.2,1.9-2.8,3.3-5,4.3-2.2,1-4.8,1.6-7.8,1.6-4.6,0-8.3-1.1-11.3-3.2Z"/>
  </g>
</svg>